<svg xmlns="http://www.w3.org/2000/svg" viewBox="0 0 512 512">
<defs><linearGradient id="gold" x2="0" y2="1"><stop stop-color="#fff28a"/><stop offset=".28" stop-color="#ffd52e"/><stop offset=".58" stop-color="#e8a900"/><stop offset=".82" stop-color="#fff078"/><stop offset="1" stop-color="#a86600"/></linearGradient><linearGradient id="red" x2="0" y2="1"><stop stop-color="#c90013"/><stop offset="1" stop-color="#65000c"/></linearGradient><linearGradient id="ribbon" x2="0" y2="1"><stop stop-color="#700d19"/><stop offset="1" stop-color="#35030a"/></linearGradient><filter id="shadow" x="-30%" y="-30%" width="160%" height="160%"><feGaussianBlur in="SourceAlpha" stdDeviation="5"/><feOffset dy="5"/><feComponentTransfer><feFuncA type="linear" slope=".6"/></feComponentTransfer><feMerge><feMergeNode/><feMergeNode in="SourceGraphic"/></feMerge></filter></defs>
<rect width="512" height="512" rx="62" fill="#ffb900"/><rect x="12" y="12" width="488" height="488" rx="55" fill="url(#gold)" stroke="#fff0a1" stroke-width="4"/><rect x="32" y="32" width="448" height="448" rx="43" fill="#8a5200"/><rect x="43" y="43" width="426" height="426" rx="36" fill="url(#red)" stroke="#ffd94b" stroke-width="4"/>
<path d="M55 100 Q140 45 230 80 T455 78 M55 150 Q160 95 255 132 T455 130 M55 210 Q155 155 250 190 T455 188" fill="none" stroke="#ff3030" stroke-opacity=".24" stroke-width="8"/>
<text x="63" y="309" font-family="Georgia,serif" font-size="286" font-weight="bold" fill="url(#gold)" stroke="#9e5a00" stroke-width="5" paint-order="stroke" filter="url(#shadow)">3</text>
<g filter="url(#shadow)"><g transform="rotate(-28 306 270)"><rect x="211" y="156" width="144" height="246" rx="14" fill="#fffdf4" stroke="#e3b54c" stroke-width="4"/><text x="228" y="214" font-family="Georgia,serif" font-size="49" font-weight="bold" fill="#111">A</text><text x="239" y="263" font-size="48" fill="#111">♣</text></g><g transform="rotate(-10 348 257)"><rect x="270" y="115" width="144" height="267" rx="14" fill="#fffdf4" stroke="#e3b54c" stroke-width="4"/><text x="286" y="176" font-family="Georgia,serif" font-size="49" font-weight="bold" fill="#e00018">A</text><text x="295" y="225" font-size="51" fill="#e00018">♥</text></g><g transform="rotate(4 395 240)"><rect x="335" y="73" width="124" height="300" rx="14" fill="#fffdf4" stroke="#e3b54c" stroke-width="4"/><text x="348" y="133" font-family="Georgia,serif" font-size="47" font-weight="bold" fill="#111">A</text><text x="356" y="186" font-size="52" fill="#111">♠</text></g></g>
<path d="M43 382 Q140 350 235 382 T469 378 L469 431 Q469 469 432 469 L80 469 Q43 469 43 431Z" fill="url(#ribbon)" stroke="url(#gold)" stroke-width="5"/><text x="256" y="445" text-anchor="middle" font-family="Georgia,serif" font-size="79" font-weight="bold" fill="url(#gold)" stroke="#a56600" stroke-width="2" paint-order="stroke" filter="url(#shadow)">Patti</text><path d="M105 72 l7 20 20 7 -20 7 -7 20 -7 -20 -20 -7 20 -7z" fill="#fff8c4"/><circle cx="105" cy="99" r="20" fill="none" stroke="#fff8c4" stroke-opacity=".5" stroke-width="2"/>
</svg>